<svg width="43" height="56" viewBox="0 0 43 56" fill="none" xmlns="http://www.w3.org/2000/svg">
<path fill-rule="evenodd" clip-rule="evenodd" d="M19.2177 30.9614L8.42678 25.2708V15.1439L19.2177 9.47657V30.9614ZM38.4355 52.7947H43V48.5209H38.4355V42.7607H32.3261V48.4977H38.4355V52.7947ZM35.018 56H38.4355V52.7947H35.018V56ZM19.2177 40.4148L23.4311 38.2082V22.1352C22.7055 21.8565 22.1905 21.2758 22.1905 20.3467C22.1905 19.4177 23.0566 18.4421 24.11 18.4421C25.1633 18.4421 26.0294 19.4177 26.0294 20.3467C26.0294 21.2758 25.5144 21.8565 24.7888 22.1352C24.7888 29.893 24.8356 37.5579 24.8356 45.2924H30.945V31.8208C30.2194 31.5421 29.7044 30.9614 29.7044 30.0324C29.7044 29.1033 30.5705 28.1277 31.6238 28.1277C32.6772 28.1277 33.5433 29.1033 33.5433 30.0324C33.5433 30.9614 33.0283 31.5421 32.3027 31.8208V41.4135H38.4121V10.1037L28.7915 5.04023L19.1709 0L9.55035 5.04023L0 10.1037V20.2074V30.3111L9.62058 35.3745L19.2177 40.4148Z" fill="#BFF747"/>
</svg>
